# Blender v2.77 (sub 0) OBJ File: ''
# www.blender.org
mtllib block.mtl
o Cube.001_Cube.002
v 0.408970 0.988566 -1.572530
v -1.446981 -0.504468 -1.458803
v 1.366800 0.302063 1.497434
v 1.572530 0.312408 1.572530
v 1.572530 0.988566 0.410308
v 1.192950 0.728106 1.321949
v 1.572530 0.280241 0.488609
v 1.349035 0.291813 1.572530
v 1.380439 0.988566 0.508929
v 1.435067 0.320873 0.538698
v 1.572530 0.809698 -1.572530
v 1.424118 0.988566 -1.572530
v 1.572530 0.988566 -1.473514
v -1.572530 -0.534517 -1.572530
v -1.572530 0.988566 -0.568245
v -0.398954 0.988566 -1.572530
v -1.572530 -0.478289 -0.576150
v -0.365796 -0.591245 -1.572530
v -1.405481 0.973966 -0.614908
v -0.433030 0.973966 -1.455992
v -0.423852 -0.555214 -1.472791
v -1.466529 -0.439720 -0.625571
v -1.420171 0.973966 -1.386331
v -1.423729 0.840514 -1.446214
v -1.334976 0.973966 -1.446033
v -1.544024 -0.988566 1.544024
v -1.572530 -0.970645 1.572530
v -1.544024 -0.988566 -1.544024
v -1.572530 -0.970645 -1.572530
v 1.544024 -0.988566 1.544024
v 1.572530 -0.970645 1.572530
v 1.544024 -0.988566 -1.544024
v 1.572530 -0.970645 -1.572530
v -1.572530 0.896341 1.572530
v -1.502804 0.988566 1.572530
v -1.572530 0.988566 1.501512
v 1.357380 0.715642 1.561848
v 1.374318 0.988566 1.195117
v 0.767540 0.988566 1.572530
v 0.800870 0.498998 1.572530
v 1.372179 0.713816 1.218623
v 1.184324 0.988566 1.124786
v 1.179834 0.988566 1.317141
v 0.774212 0.988566 1.313916
v 0.720409 0.988566 -1.572530
v 0.823327 0.554142 1.327371
v 0.676965 0.251490 -1.572530
v 1.192915 0.756850 1.163448
v 0.601013 0.245872 -1.572530
v 0.704690 0.988565 -0.647181
v 0.400878 0.988566 -0.647522
v 0.408970 0.941176 -1.546706
v 0.720409 0.941176 -1.546706
v 0.400878 0.941176 -0.647522
v 0.704690 0.941176 -0.647181
vn 0.0000 -1.0000 0.0000
vn 0.0448 0.9525 -0.3011
vn 0.9955 0.0834 0.0439
vn -0.0000 0.0000 1.0000
vn 0.0000 1.0000 0.0000
vn -0.0912 0.9893 0.1135
vn -0.0394 0.9988 -0.0296
vn 0.0000 0.0000 -1.0000
vn -0.9998 0.0000 -0.0175
vn 0.3671 0.1022 0.9245
vn 0.4554 0.0768 0.8870
vn 0.5041 0.4183 -0.7556
vn -0.1847 0.9812 -0.0554
vn 1.0000 -0.0000 0.0000
vn -0.2675 0.0188 -0.9634
vn -0.8669 -0.0182 -0.4981
vn -0.9597 -0.0027 -0.2810
vn -0.0113 0.0109 -0.9999
vn -0.9990 0.0430 0.0150
vn -0.5360 0.3575 -0.7648
vn -0.4240 0.0049 -0.9056
vn -0.5322 -0.8466 0.0000
vn 0.0000 -0.8466 -0.5322
vn 0.5322 -0.8466 0.0000
vn 0.0000 -0.8466 0.5322
vn -0.6280 0.4748 0.6166
vn 0.8798 0.2275 0.4175
vn -1.0000 0.0000 0.0000
vn 0.0001 0.0310 0.9995
vn -0.0082 0.9999 -0.0070
vn -0.9925 0.0585 0.1074
vn 1.0000 0.0048 0.0087
vn 0.9921 0.0675 0.1061
vn 0.0784 0.9969 -0.0019
vn -0.4182 0.8937 0.1627
vn 0.9989 0.0409 0.0233
vn -0.3436 0.1421 0.9283
vn 0.0011 -0.0000 -1.0000
vn 0.0000 0.0371 -0.9993
vn 0.0426 0.9473 -0.3174
vn 0.9989 0.0161 0.0430
vn 0.9968 0.0355 0.0717
vn 0.9735 -0.0134 0.2285
vn 0.9999 -0.0070 0.0089
vn 0.0095 0.0250 0.9996
vn 0.2966 0.9542 0.0398
vn -0.9998 -0.0093 -0.0170
vn -0.3738 0.9240 -0.0806
vn -0.0132 0.0096 -0.9999
vn -0.0110 0.0087 -0.9999
vn -0.9995 0.0175 -0.0248
vn -0.9997 0.0181 0.0190
vn -0.0079 0.0181 0.9998
vn 0.0871 0.9962 0.0000
vn 0.0065 1.0000 -0.0064
vn 0.0000 0.9922 0.1243
vn -0.0083 0.9999 -0.0095
vn -0.0174 0.9998 -0.0002
vn 1.0000 -0.0000 0.0090
vn 0.9933 0.1131 0.0256
vn 0.1784 0.9682 0.1755
vn -0.3434 0.8959 0.2819
vn 0.9987 0.0505 0.0089
vn -0.2746 0.0841 0.9579
vn -0.0028 0.0376 -0.9993
usemtl None
s off
f 28//1 30//1 26//1
f 2//2 18//2 14//2
f 41//3 10//3 9//3
f 40//4 34//4 27//4
f 52//5 55//5 53//5
f 4//6 3//6 8//6
f 7//7 3//7 4//7
f 49//8 47//8 33//8
f 50//9 53//9 55//9
f 10//10 7//10 5//10
f 9//11 10//11 5//11
f 11//12 12//12 13//12
f 17//13 2//13 14//13
f 5//14 7//14 11//14
f 15//15 19//15 22//15
f 18//16 21//16 16//16
f 21//17 20//17 16//17
f 24//18 20//18 21//18
f 19//19 24//19 22//19
f 24//20 23//20 25//20
f 22//21 17//21 15//21
f 26//22 29//22 28//22
f 28//23 33//23 32//23
f 32//24 31//24 30//24
f 30//25 27//25 26//25
f 35//26 36//26 34//26
f 52//27 49//27 1//27
f 17//28 29//28 27//28
f 6//29 44//29 46//29
f 51//30 19//30 35//30
f 45//31 47//31 53//31
f 51//32 52//32 1//32
f 46//33 39//33 40//33
f 41//34 6//34 37//34
f 40//35 6//35 46//35
f 43//36 48//36 42//36
f 48//37 38//37 42//37
f 50//38 54//38 51//38
f 53//39 49//39 52//39
f 28//1 32//1 30//1
f 2//40 21//40 18//40
f 41//41 37//41 3//41
f 3//42 10//42 41//42
f 37//43 8//43 3//43
f 9//44 38//44 41//44
f 31//4 4//4 8//4
f 8//45 37//45 40//45
f 40//4 39//4 35//4
f 35//4 34//4 40//4
f 27//4 31//4 40//4
f 8//4 40//4 31//4
f 52//5 54//5 55//5
f 7//46 10//46 3//46
f 29//8 14//8 18//8
f 18//8 16//8 49//8
f 16//8 1//8 49//8
f 33//8 29//8 18//8
f 12//8 11//8 45//8
f 47//8 45//8 11//8
f 18//8 49//8 33//8
f 47//8 11//8 33//8
f 50//47 45//47 53//47
f 17//48 22//48 2//48
f 33//14 11//14 7//14
f 13//14 5//14 11//14
f 7//14 4//14 31//14
f 31//14 33//14 7//14
f 21//49 2//49 24//49
f 24//50 25//50 20//50
f 2//51 22//51 24//51
f 19//52 23//52 24//52
f 26//22 27//22 29//22
f 28//23 29//23 33//23
f 32//24 33//24 31//24
f 30//25 31//25 27//25
f 27//28 34//28 17//28
f 36//28 15//28 34//28
f 17//28 14//28 29//28
f 34//28 15//28 17//28
f 6//53 43//53 44//53
f 35//5 39//5 44//5
f 44//5 43//5 42//5
f 42//5 38//5 9//5
f 9//5 5//5 50//5
f 13//5 12//5 50//5
f 12//5 45//5 50//5
f 42//5 9//5 44//5
f 35//5 44//5 51//5
f 15//54 36//54 19//54
f 25//5 23//5 19//5
f 19//55 36//55 35//55
f 44//5 9//5 51//5
f 5//5 13//5 50//5
f 25//5 19//5 20//5
f 1//56 16//56 20//56
f 20//57 19//57 51//57
f 9//5 50//5 51//5
f 51//58 1//58 20//58
f 51//59 54//59 52//59
f 46//60 44//60 39//60
f 41//61 48//61 6//61
f 40//62 37//62 6//62
f 43//63 6//63 48//63
f 48//64 41//64 38//64
f 50//38 55//38 54//38
f 53//65 47//65 49//65
